<?xml version="1.0" standalone="no"?>
<!DOCTYPE svg PUBLIC "-//W3C//DTD SVG 20010904//EN" "http://www.w3.org/TR/2001/REC-SVG-20010904/DTD/svg10.dtd">
<svg version="1.0" xmlns="http://www.w3.org/2000/svg" width="1080.000000pt" height="1080.000000pt"
    viewBox="0 0 1080.000000 1080.000000" preserveAspectRatio="xMidYMid meet">

    <g transform="translate(0.000000,1080.000000) scale(0.100000,-0.100000)" fill="blue" stroke="none">
        <path d="M5368 8583 c-14 -32 -215 -473 -447 -981 -231 -508 -421 -927 -421
-931 0 -5 33 -12 73 -15 136 -13 432 -57 612 -91 391 -74 806 -192 1210 -344
72 -26 131 -48 132 -47 5 4 -1122 2466 -1128 2466 -3 0 -17 -26 -31 -57z" />
        <path fill="red" d="M4251 6129 c-73 -162 -136 -301 -138 -310 -4 -14 11 -17 99 -23 142
-10 378 -40 598 -78 102 -17 194 -31 204 -32 16 -1 44 53 157 299 l137 300
-57 12 c-170 36 -589 99 -796 118 l-70 7 -134 -293z" />
        <path d="M5544 6168 c18 -40 99 -220 181 -399 l149 -327 65 -22 c230 -79 602
-244 946 -418 224 -114 232 -117 219 -87 -39 93 -415 910 -421 916 -12 11
-446 183 -623 245 -132 47 -518 164 -542 164 -4 0 7 -33 26 -72z" />
        <path fill="red" d="M3976 5523 c-66 -136 -226 -496 -222 -500 2 -2 87 -17 188 -33 219
-34 430 -72 592 -106 65 -14 120 -23 122 -21 7 6 264 570 261 573 -14 13 -829
124 -910 124 -7 0 -21 -17 -31 -37z" />
        <path d="M6022 5121 c1 -5 101 -225 221 -488 l219 -478 101 -60 c389 -229 893
-608 1349 -1014 45 -40 47 -41 35 -14 -6 16 -154 340 -327 720 l-315 692 -150
84 c-407 229 -755 408 -988 506 -137 58 -149 63 -145 52z" />
        <path fill="red" d="M3518 4522 c-108 -237 -431 -947 -735 -1612 -69 -151 -139 -304 -155
-340 -17 -36 -66 -143 -109 -238 -43 -95 -79 -175 -79 -178 0 -2 221 -3 491
-2 l492 3 114 250 c62 138 123 270 135 295 11 25 126 277 255 560 290 636 404
885 527 1154 53 115 95 210 93 211 -1 2 -65 16 -142 33 -235 52 -439 85 -725
117 l-45 5 -117 -258z" />
        <path d="M6662 3718 c15 -38 712 -1564 718 -1571 3 -4 227 -6 498 -5 l492 3
-40 85 c-45 96 -125 197 -332 420 -301 323 -705 662 -1118 939 -197 132 -225
149 -218 129z" />
    </g>
</svg>